<?xml version="1.0" encoding="UTF-8"?>
<svg width="79px" height="100px" viewBox="0 0 79 100" version="1.1" xmlns="http://www.w3.org/2000/svg" xmlns:xlink="http://www.w3.org/1999/xlink">
    <!-- Generator: Sketch 55.1 (78136) - https://sketchapp.com -->
    <title>bandicon</title>
    <desc>Created with Sketch.</desc>
    <g id="Page-1" stroke="none" stroke-width="1" fill="none" fill-rule="evenodd">
        <g id="bandicon" fill="#FFFFFF">
            <path d="M0.00588728379,61.6438356 L5.48630211,61.6438356 C5.85103062,79.8632412 20.7343645,94.5205479 39.0410959,94.5205479 C57.57668,94.5205479 72.6027397,79.4944882 72.6027397,60.9589041 C72.6027397,42.42332 57.57668,27.3972603 39.0410959,27.3972603 C35.7090354,27.3972603 32.4903876,27.8828375 29.4520548,28.7870896 L29.4520548,23.1041171 C32.5200049,22.3293792 35.7324866,21.9178082 39.0410959,21.9178082 C60.6028978,21.9178082 78.0821918,39.3971022 78.0821918,60.9589041 C78.0821918,82.520706 60.6028978,100 39.0410959,100 C17.7080694,100 0.371377857,82.8896565 0.00588728379,61.6438356 Z M11.6522301,61.6438356 L17.1337862,61.6438356 C17.4956327,73.4317825 27.1653735,82.8767123 39.0410959,82.8767123 C51.1459671,82.8767123 60.9589041,73.0637753 60.9589041,60.9589041 C60.9589041,48.8540329 51.1459671,39.0410959 39.0410959,39.0410959 C35.6023051,39.0410959 32.348481,39.833032 29.4520533,41.2444745 L29.4520548,35.2865964 C32.4365383,34.1713568 35.667614,33.5616438 39.0410959,33.5616438 C54.1721849,33.5616438 66.4383562,45.8278151 66.4383562,60.9589041 C66.4383562,76.0899931 54.1721849,88.3561644 39.0410959,88.3561644 C24.1389843,88.3561644 12.0157375,76.4584299 11.6522301,61.6438356 Z M23.9878922,61.6438356 L29.4520548,61.6438356 L29.4520548,49.3346907 C32.0573714,47.183062 35.3982762,45.890411 39.0410959,45.890411 C47.3631949,45.890411 54.109589,52.6368051 54.109589,60.9589041 C54.109589,69.2810031 47.3631949,76.0273973 39.0410959,76.0273973 C30.9485424,76.0273973 24.3459683,69.6480371 23.9878922,61.6438356 Z M39.0410959,70.5479452 C44.3369771,70.5479452 48.630137,66.2547853 48.630137,60.9589041 C48.630137,55.6630229 44.3369771,51.369863 39.0410959,51.369863 C33.7452147,51.369863 29.4520548,55.6630229 29.4520548,60.9589041 C29.4520548,66.2547853 33.7452147,70.5479452 39.0410959,70.5479452 Z" id="Combined-Shape"></path>
            <path d="M23.9726027,61.6438356 L23.9726027,14.7260274 C23.9726027,9.61928485 19.8327699,5.47945205 14.7260274,5.47945205 C9.61928485,5.47945205 5.47945205,9.61928485 5.47945205,14.7260274 L5.47945205,61.6438356 L0,61.6438356 L0,12 C-2.58798134e-15,5.372583 5.372583,-5.58920087e-16 12,0 L17.4520548,0 C24.0794718,-2.99379359e-15 29.4520548,5.372583 29.4520548,12 L29.4520548,61.6438356 L23.9726027,61.6438356 Z M14.3835616,9.5890411 C15.8966705,9.5890411 17.1232877,10.8156582 17.1232877,12.3287671 L17.1232877,61.6438356 L11.6438356,61.6438356 L11.6438356,12.3287671 C11.6438356,10.8156582 12.8704527,9.5890411 14.3835616,9.5890411 Z" id="Combined-Shape"></path>
        </g>
    </g>
</svg>