<?xml version="1.0" encoding="UTF-8"?>
<svg width="100px" height="100px" viewBox="0 0 100 100" version="1.1" xmlns="http://www.w3.org/2000/svg" xmlns:xlink="http://www.w3.org/1999/xlink">
    <!-- Generator: Sketch 55.1 (78136) - https://sketchapp.com -->
    <title>instagramicon</title>
    <desc>Created with Sketch.</desc>
    <g id="Page-1" stroke="none" stroke-width="1" fill="none" fill-rule="evenodd">
        <path d="M50.0046875,0 C36.4253794,0 34.721195,0.059375 29.3878061,0.302083333 C24.064834,0.545833333 20.4314628,1.38854167 17.252263,2.625 C13.9636871,3.90208333 11.1740747,5.61041667 8.39487911,8.390625 C5.61360014,11.1697917 3.90524901,13.959375 2.62398567,17.246875 C1.38438942,20.4270833 0.540630632,24.0614583 0.301044803,29.3822917 C0.062500651,34.715625 0,36.4208333 0,50 C0,63.5791667 0.060417296,65.278125 0.30208648,70.6114583 C0.546880697,75.934375 1.38959781,79.5677083 2.62502734,82.746875 C3.90316566,86.0354167 5.61151679,88.825 8.39175408,91.6041667 C11.169908,94.3854167 13.9595204,96.0979167 17.246013,97.375 C20.4272961,98.6114583 24.061709,99.4541667 29.3836394,99.6979167 C34.7170283,99.940625 36.420171,100 49.9984375,100 C63.5787873,100 65.2777633,99.940625 70.6111522,99.6979167 C75.9341243,99.4541667 79.5716622,98.6114583 82.7529453,97.375 C86.0404796,96.0979167 88.8259253,94.3854167 91.6040792,91.6041667 C94.3853582,88.825 96.0937093,86.0354167 97.3749727,82.7479167 C98.6041521,79.5677083 99.4479109,75.9333333 99.6979135,70.6125 C99.9374993,65.2791667 100,63.5791667 100,50 C100,36.4208333 99.9374993,34.7166667 99.6979135,29.3833333 C99.4479109,24.0604167 98.6041521,20.4270833 97.3749727,17.2479167 C96.0937093,13.959375 94.3853582,11.1697917 91.6040792,8.390625 C88.8228002,5.609375 86.0415213,3.90104167 82.7498203,2.625 C79.5622871,1.38854167 75.9268326,0.545833333 70.6038605,0.302083333 C65.2704716,0.059375 63.5725372,1.48029737e-14 49.9890624,1.48029737e-14 L50.0046875,0 Z M45.5469869,9.3147383 C46.8687732,9.31266951 48.3436301,9.3147383 50.0005171,9.3147383 C63.255613,9.3147383 64.8266563,9.36232037 70.0610539,9.60023076 C74.9013979,9.82159086 77.5284222,10.6304862 79.2783928,11.3100823 C81.5951386,12.2100042 83.2468543,13.2857729 84.9833794,15.0235531 C86.7209388,16.7613333 87.7965708,18.4163621 88.6984469,20.7334024 C89.3779567,22.4815265 90.1877835,25.1088846 90.4080812,29.9498438 C90.6459613,35.1838722 90.6976744,36.7561495 90.6976744,50.0067236 C90.6976744,63.2572976 90.6459613,64.8295749 90.4080812,70.0636033 C90.1867492,74.9045625 89.3779567,77.5319206 88.6984469,79.2800448 C87.7986393,81.597085 86.7209388,83.2469418 84.9833794,84.9836876 C83.24582,86.7214678 81.5961729,87.7972365 79.2783928,88.6971584 C77.5304908,89.3798578 74.9013979,90.1866843 70.0610539,90.4080444 C64.8276906,90.6459548 63.255613,90.6976744 50.0005171,90.6976744 C36.744387,90.6976744 35.1733437,90.6459548 29.9399803,90.4080444 C25.0996363,90.1846155 22.472612,89.3757202 20.7216072,88.696124 C18.4048614,87.7962021 16.7500429,86.7204334 15.0124835,84.9826532 C13.2749242,83.244873 12.1992922,81.5939818 11.2974161,79.2759072 C10.6179063,77.5277831 9.80807947,74.9004249 9.58778177,70.0594658 C9.34990161,64.8254373 9.30232558,63.25316 9.30232558,49.9943108 C9.30232558,36.7354617 9.34990161,35.1714595 9.58778177,29.937431 C9.80911374,25.0964719 10.6179063,22.4691138 11.2974161,20.7189209 C12.1972236,18.4018806 13.2749242,16.7468518 15.0124835,15.0090716 C16.7500429,13.2712914 18.4048614,12.1955227 20.7216072,11.2935321 C22.4715778,10.6108327 25.0996363,9.80400617 29.9399803,9.58161168 C34.5196904,9.37473309 36.2944832,9.31266951 45.5469869,9.30232558 L45.5469869,9.3147383 Z M75.5813953,18.6066699 C72.3716085,18.6066699 69.7674419,21.2078085 69.7674419,24.4186047 C69.7674419,27.6283915 72.3716085,30.2325581 75.5813953,30.2325581 C78.7911822,30.2325581 81.3953488,27.6283915 81.3953488,24.4186047 C81.3953488,21.2088178 78.7911822,18.6046512 75.5813953,18.6046512 L75.5813953,18.6066699 Z M51.1648664,23.255814 C37.0363556,23.255814 25.5813953,34.7110066 25.5813953,48.839804 C25.5813953,62.9686015 37.0363556,74.4186047 51.1648664,74.4186047 C65.2933773,74.4186047 76.744186,62.9686015 76.744186,48.839804 C76.744186,34.7110066 65.2923394,23.255814 51.1638286,23.255814 L51.1648664,23.255814 Z M51.1627907,32.5581395 C60.152907,32.5581395 67.4418605,39.8460756 67.4418605,48.8372093 C67.4418605,57.8273256 60.152907,65.1162791 51.1627907,65.1162791 C42.171657,65.1162791 34.8837209,57.8273256 34.8837209,48.8372093 C34.8837209,39.8460756 42.171657,32.5581395 51.1627907,32.5581395 L51.1627907,32.5581395 Z" id="instagramicon" fill="#FFFFFF"></path>
    </g>
</svg>