<?xml version="1.0" encoding="UTF-8"?>
<svg width="114px" height="105px" viewBox="0 0 114 105" version="1.1" xmlns="http://www.w3.org/2000/svg" xmlns:xlink="http://www.w3.org/1999/xlink">
    <!-- Generator: Sketch 55.1 (78136) - https://sketchapp.com -->
    <title>kakaotalkicon</title>
    <desc>Created with Sketch.</desc>
    <g id="Page-1" stroke="none" stroke-width="1" fill="none" fill-rule="evenodd">
        <g id="kakaotalkicon" transform="translate(3.000000, 3.000000)" fill-rule="nonzero">
            <path d="M53.8695052,-2.13162821e-14 C24.117999,-2.13162821e-14 1.42108547e-14,19.0164533 1.42108547e-14,42.4740329 C1.42108547e-14,57.6398526 10.082921,70.9471743 25.2502946,78.4614523 C24.4251588,81.3072125 19.9477742,96.7687964 19.7695904,97.9834502 C19.7695904,97.9834502 19.6623694,98.8961239 20.25338,99.2442038 C20.8443906,99.5922836 21.5395145,99.3219002 21.5395145,99.3219002 C23.234332,99.0851851 41.1930782,86.4703973 44.3014523,84.2798768 C47.4067185,84.7196384 50.6041844,84.9480659 53.8695052,84.9480659 C83.6210113,84.9480659 107.73901,65.9321305 107.73901,42.4740329 C107.73901,19.0164533 83.6210113,-2.13162821e-14 53.8695052,-2.13162821e-14 Z" id="Path" stroke="#FFFFFF" stroke-width="5" fill-opacity="0" fill="#000000"></path>
            <path d="M24.3821369,58.8755579 C22.7795321,58.8755579 21.4762352,57.3031876 21.4762352,55.3698452 L21.4762352,33.5616202 L16.94206,33.5616202 C15.3694828,33.5616202 14.0904018,31.94887 14.0904018,29.967194 C14.0904018,27.9855181 15.3699672,26.3727679 16.94206,26.3727679 L31.8222138,26.3727679 C33.394791,26.3727679 34.673872,27.9855181 34.673872,29.967194 C34.673872,31.94887 33.3943067,33.5616202 31.8222138,33.5616202 L27.2880386,33.5616202 L27.2880386,55.3698452 C27.2880386,57.3031876 25.9847417,58.8755579 24.3821369,58.8755579 Z M49.8630201,58.8278391 C48.6512591,58.8278391 47.7242765,58.2062298 47.4448256,57.2065205 L46.0059199,52.4478061 L37.1448571,52.4471943 L35.7049828,57.2089677 C35.4265006,58.2068416 34.5000022,58.8278391 33.2882412,58.8278391 C32.6508466,58.8286606 32.0208036,58.6558733 31.4410564,58.3212515 C30.6399962,57.8544349 29.8699322,56.5708424 30.7523577,53.1085687 L37.7032745,29.9965613 C38.192919,28.2388104 39.6802563,26.4278314 41.5729669,26.3733797 C43.471005,26.4272196 44.9583424,28.2388104 45.4489555,30.0002322 L52.3969664,53.1018387 C53.2813291,56.572066 52.5112652,57.8562704 51.7102049,58.3218633 C51.1303197,58.6558908 50.5003452,58.8284506 49.8630201,58.8278391 C49.8625358,58.8278391 49.8630201,58.8278391 49.8630201,58.8278391 L49.8630201,58.8278391 Z M44.4779,45.9454127 L41.5753885,35.5292244 L38.6728771,45.9454127 L44.4779,45.9454127 L44.4779,45.9454127 Z M57.0735308,58.3402178 C55.5377618,58.3402178 54.2887084,56.8302529 54.2887084,54.9752231 L54.2887084,30.0436712 C54.2887084,28.019168 55.6196113,26.3727679 57.2551497,26.3727679 C58.890688,26.3727679 60.221591,28.019168 60.221591,30.0436712 L60.221591,51.6102283 L66.396632,51.6102283 C67.9324011,51.6102283 69.1814545,53.1201932 69.1814545,54.9752231 C69.1814545,56.8302529 67.9324011,58.3402178 66.396632,58.3402178 L57.0735308,58.3402178 Z M73.2177519,58.8278361 C71.6151471,58.8278361 70.3118502,57.181436 70.3118502,55.1569328 L70.3118502,30.0436712 C70.3118502,28.019168 71.6151471,26.3727679 73.2177519,26.3727679 C74.8203567,26.3727679 76.1236536,28.019168 76.1236536,30.0436712 L76.1236536,37.9336661 L84.2311193,27.6918458 C84.6481162,27.1650712 85.2210631,26.8750698 85.8429261,26.8750698 C86.5684329,26.8750698 87.2968456,27.2703037 87.8426708,27.9592099 C88.3516879,28.601618 88.6553546,29.4281831 88.6970059,30.2865626 C88.7391414,31.152284 88.5110282,31.9458109 88.0557702,32.521531 L81.4337046,40.8856842 L88.5865816,52.8565 C89.0530712,53.6322151 89.254027,54.6117321 89.1445147,55.5760276 C89.0398839,56.5409239 88.6338526,57.4127596 88.0170249,57.9969883 C87.5145105,58.479502 86.9003235,58.7398474 86.269125,58.737899 C85.3560993,58.7432667 84.4950225,58.2019956 83.9477939,57.2787149 L77.1329701,45.8719946 L76.1246222,47.145798 L76.1246222,55.1550973 C76.1227546,57.1822781 74.8224759,58.8251391 73.2177519,58.8278361 L73.2177519,58.8278361 Z" id="Shape" fill="#FFFFFF"></path>
        </g>
    </g>
</svg>