<?xml version="1.0" encoding="UTF-8"?>
<svg width="55px" height="100px" viewBox="0 0 55 100" version="1.1" xmlns="http://www.w3.org/2000/svg" xmlns:xlink="http://www.w3.org/1999/xlink">
    <!-- Generator: Sketch 55.1 (78136) - https://sketchapp.com -->
    <title>kakaostoryicon</title>
    <desc>Created with Sketch.</desc>
    <g id="Page-1" stroke="none" stroke-width="1" fill="none" fill-rule="evenodd">
        <path d="M54.0915978,4.7602811 L54.0915978,48.2485398 C54.0915978,48.2485398 54.5522702,63.155425 45.3309481,78.3654878 C38.2594305,90.0358543 29.5145303,97.001063 25.825214,99.6154771 C24.7030634,100.410826 23.2816726,99.7257235 23.2816726,99.7257235 L8.29210256,83.5273807 C8.29210256,83.5273807 7.07151766,81.979994 8.51653269,80.8066576 C11.4695607,78.4166736 17.7851032,73.0106637 20.8995633,67.766086 C25.8882119,59.3558623 25.3566669,54.0128504 25.3566669,54.0128504 C25.3566669,54.0128504 9.52843694,54.0128504 4.76421847,54.0128504 C0,54.0128504 0,49.2486319 0,49.2486319 C0,49.2486319 0,10.7568966 0,5.37844829 C0,0 4.76421847,0 4.76421847,0 C4.76421847,0 44.5670982,0 49.3313167,0 C54.0953991,0 54.0915978,4.76421847 54.0915978,4.76421847 L54.0915978,4.7602811 Z" id="kakaostoryicon" fill="#FFFFFF" fill-rule="nonzero"></path>
    </g>
</svg>