<?xml version="1.0" encoding="UTF-8"?>
<svg width="121px" height="100px" viewBox="0 0 121 100" version="1.1" xmlns="http://www.w3.org/2000/svg" xmlns:xlink="http://www.w3.org/1999/xlink">
    <!-- Generator: Sketch 55.1 (78136) - https://sketchapp.com -->
    <title>twittericon</title>
    <desc>Created with Sketch.</desc>
    <g id="Page-1" stroke="none" stroke-width="1" fill="none" fill-rule="evenodd">
        <path d="M58.7562636,26.6015659 L59.0185682,30.926848 L54.6468224,30.3972213 C38.7336678,28.3669872 24.8315162,21.4818443 13.0278025,9.91833512 L7.2570979,4.18071639 L5.77070457,8.41772721 C2.62304749,17.8627309 4.63405041,27.8373605 11.1916691,34.5459613 C14.6890658,38.2533459 13.9021516,38.7829721 7.86914248,36.5761959 C5.77070457,35.8700272 3.93457124,35.3404009 3.75970124,35.6052142 C3.14765708,36.2231113 5.24609499,44.255778 6.90735832,47.4335363 C9.18066623,51.8470892 13.8147166,56.1723713 18.885942,58.7322321 L23.1702529,60.7624667 L18.0990275,60.8507375 C13.2026725,60.8507375 13.0278025,60.9390088 13.5524121,62.7927008 C15.3011104,68.53032 22.2084687,74.6210229 29.9027412,77.269155 L35.3237062,79.1228471 L30.6022208,81.9475212 C23.6074274,86.00799 15.3885454,88.3030375 7.16966332,88.4795795 C3.23509208,88.5678508 0,88.920935 0,89.1857483 C0,90.0684587 10.6670596,95.0116383 16.8749387,96.9536016 C35.4985758,102.691221 57.6196095,100.219631 74.2322436,90.4215429 C86.0359573,83.4481291 97.839671,69.5895725 103.348071,56.1723713 C106.320858,49.0224155 109.293645,35.9582984 109.293645,29.691053 C109.293645,25.6305843 109.55595,25.100958 114.452305,20.2460493 C117.337657,17.4213755 120.04814,14.3318884 120.572749,13.4491776 C121.447098,11.7720276 121.359663,11.7720276 116.900483,13.2726355 C109.468515,15.9207676 108.419296,15.567683 112.091562,11.5954855 C114.802045,8.77081138 118.037136,3.65109014 118.037136,2.15048181 C118.037136,1.88566889 116.725613,2.32702389 115.239219,3.12146347 C113.665391,4.0041743 110.167994,5.32824013 107.544947,6.12267972 L102.823461,7.62328763 L98.5391502,4.71034264 C96.1784077,3.12146347 92.8558806,1.35604223 91.1071823,0.826415977 C86.6480019,-0.40937902 79.8280782,-0.232836937 75.8060723,1.17950014 C64.8767078,5.15169805 57.9693495,15.3911409 58.7562636,26.6015659 Z" id="twittericon" fill="#FFFFFF" fill-rule="nonzero"></path>
    </g>
</svg>