<?xml version="1.0" encoding="UTF-8"?>
<svg width="390px" height="220px" viewBox="0 0 390 220" version="1.1" xmlns="http://www.w3.org/2000/svg" xmlns:xlink="http://www.w3.org/1999/xlink">
    <!-- Generator: Sketch 57.1 (83088) - https://sketch.com -->
    <title>Group 14</title>
    <desc>Created with Sketch.</desc>
    <g id="Page-1" stroke="none" stroke-width="1" fill="none" fill-rule="evenodd">
        <g id="Group-14">
            <g id="Group-8">
                <g id="Group-6">
                    <g id="Group-2">
                        <rect id="Rectangle" stroke="#000000" x="0.5" y="0.5" width="389" height="219" rx="10"></rect>
                        <text id="Youtube-링크-(터치후-수정해주" font-family="AppleSDGothicNeo-Light, Apple SD Gothic Neo" font-size="40" font-weight="300" fill="#000204">
                            <tspan x="85.92" y="134">Youtube 링크</tspan>
                            <tspan x="65.78" y="187" font-size="30" line-spacing="48">(터치후 수정해주세요)</tspan>
                        </text>
                    </g>
                </g>
            </g>
            <g id="Group-13" transform="translate(146.956522, 35.066667)" stroke="#000000" stroke-width="2">
                <path d="M16.4216835,0.735897539 C26.8946385,0.24529918 37.3675936,-1.42108547e-14 47.8405486,-1.42108547e-14 C58.4059121,-1.42108547e-14 68.9712755,0.249647082 79.5366389,0.748941247 L79.5366389,0.7489402 C88.2767154,1.16197561 95.2757954,8.14178444 95.7129272,16.8806889 C95.838233,19.3857337 95.9008859,21.967358 95.9008859,24.6255616 C95.9008859,28.164542 95.7898353,31.7036512 95.5677341,35.242889 L95.5677336,35.2428889 C95.032466,43.7725126 88.2479183,50.5787774 79.7200488,51.1413015 C69.0935487,51.8422575 58.4670487,52.1927356 47.8405486,52.1927356 C37.2578028,52.1927356 26.6750569,51.8451377 16.0923111,51.1499421 L16.0923111,51.1499425 C7.49080533,50.5848973 0.673661726,43.6714948 0.229269051,35.0629123 C0.0764230171,32.1020451 9.23705556e-14,29.1131969 9.23705556e-14,26.0963678 C9.23705556e-14,23.0100446 0.0799844481,19.9237004 0.239953344,16.8373354 L0.239950678,16.8373353 C0.692384657,8.10828575 7.69049136,1.14490421 16.4216835,0.735897539 Z" id="Rectangle"></path>
                <polygon id="Triangle" transform="translate(50.195621, 25.788390) rotate(90.000000) translate(-50.195621, -25.788390) " points="50.1956211 12.5999839 60.8289544 38.9767955 39.5622878 38.9767955"></polygon>
            </g>
        </g>
    </g>
</svg>