<?xml version="1.0" encoding="UTF-8"?>
<svg width="100px" height="100px" viewBox="0 0 100 100" version="1.1" xmlns="http://www.w3.org/2000/svg" xmlns:xlink="http://www.w3.org/1999/xlink">
    <!-- Generator: Sketch 57.1 (83088) - https://sketch.com -->
    <title>iconfinder_social-instagram-new-circle_1164349</title>
    <desc>Created with Sketch.</desc>
    <defs>
        <linearGradient x1="21.3192187%" y1="90.9614844%" x2="78.6816406%" y2="9.039375%" id="linearGradient-1">
            <stop stop-color="#FFB900" offset="0%"></stop>
            <stop stop-color="#9100EB" offset="100%"></stop>
        </linearGradient>
    </defs>
    <g id="Page-1" stroke="none" stroke-width="1" fill="none" fill-rule="evenodd">
        <g id="iconfinder_social-instagram-new-circle_1164349" fill-rule="nonzero">
            <circle id="Oval" fill="url(#linearGradient-1)" cx="50" cy="50" r="50"></circle>
            <g id="Group" transform="translate(18.750000, 18.750000)" fill="#FFFFFF">
                <path d="M45.5726562,62.5 L16.9273438,62.5 C7.59375,62.5 0,54.9070313 0,45.5726562 L0,16.9273438 C0,7.59296875 7.59375,0 16.9273438,0 L45.5726562,0 C54.9070313,0 62.5,7.59296875 62.5,16.9273438 L62.5,45.5734375 C62.5,54.9070313 54.9070313,62.5 45.5726562,62.5 Z M16.9273438,5.20859375 C10.465625,5.20859375 5.20859375,10.465625 5.20859375,16.9273438 L5.20859375,45.5734375 C5.20859375,52.0351563 10.465625,57.2921875 16.9273438,57.2921875 L45.5726563,57.2921875 C52.034375,57.2921875 57.2914063,52.0351563 57.2914063,45.5734375 L57.2914063,16.9273438 C57.2914063,10.465625 52.034375,5.20859375 45.5726563,5.20859375 L16.9273438,5.20859375 Z" id="Shape"></path>
                <path d="M31.25,46.875 C22.634375,46.875 15.625,39.8648437 15.625,31.25 C15.625,22.6335938 22.634375,15.625 31.25,15.625 C39.865625,15.625 46.875,22.6335938 46.875,31.25 C46.875,39.8648437 39.865625,46.875 31.25,46.875 Z M31.25,20.8335937 C25.50625,20.8335937 20.8335937,25.50625 20.8335937,31.25 C20.8335937,36.9945312 25.50625,41.6664063 31.25,41.6664063 C36.99375,41.6664063 41.6664063,36.9945312 41.6664063,31.25 C41.6664063,25.50625 36.9945312,20.8335937 31.25,20.8335937 Z" id="Shape"></path>
                <circle id="Oval" cx="47.8515625" cy="14.6484375" r="3.58046875"></circle>
            </g>
        </g>
    </g>
</svg>