<?xml version="1.0" encoding="UTF-8"?>
<svg width="100px" height="100px" viewBox="0 0 100 100" version="1.1" xmlns="http://www.w3.org/2000/svg" xmlns:xlink="http://www.w3.org/1999/xlink">
    <!-- Generator: Sketch 57.1 (83088) - https://sketch.com -->
    <title>Twitter</title>
    <desc>Created with Sketch.</desc>
    <g id="Page-1" stroke="none" stroke-width="1" fill="none" fill-rule="evenodd">
        <g id="Twitter" fill-rule="nonzero">
            <path d="M0,50 C0,22.3857612 22.3857612,0 50,0 C77.6142388,0 100,22.3857612 100,50 C100,77.6142388 77.6142388,100 50,100 C22.3857612,100 0,77.6142388 0,50 Z" id="back" fill="#55ACEE"></path>
            <path d="M48.852756,39.704689 L48.96817,41.6078131 L47.0446018,41.3747774 C40.0428138,40.4814744 33.9258671,37.4520115 28.7322331,32.3640675 L26.1931231,29.8395152 L25.53911,31.7038 C24.1541409,35.8596016 25.0389822,40.2484386 27.9243344,43.200223 C29.463189,44.8314722 29.1169467,45.0645077 26.4624227,44.0935262 C25.53911,43.7828119 24.7312113,43.5497764 24.6542685,43.6662943 C24.3849691,43.938169 25.3082818,47.4725423 26.0392377,48.870756 C27.0394931,50.8127192 29.0784753,52.7158434 31.3098145,53.8421821 L33.1949113,54.7354853 L30.9635721,54.7743245 C28.8091759,54.7743245 28.7322331,54.8131639 28.9630613,55.6287884 C29.7324886,58.1533408 32.7717262,60.8332501 36.1572061,61.9984282 L38.5424307,62.8140527 L36.4649771,64.0569093 C33.3872681,65.8435156 29.77096,66.8533365 26.1546519,66.931015 C24.4234405,66.9698543 23,67.1252114 23,67.2417292 C23,67.6301218 27.6935062,69.8051208 30.424973,70.6595847 C38.6193733,73.1841371 48.3526282,72.0966375 55.6621872,67.7854789 C60.8558212,64.7171768 66.0494553,58.6194119 68.4731511,52.7158434 C69.7811774,49.5698628 71.0892039,43.8216513 71.0892039,41.0640633 C71.0892039,39.2774571 71.2046179,39.0444215 73.3590143,36.9082617 C74.6285692,35.6654052 75.8211815,34.3060309 76.0520097,33.9176382 C76.4367233,33.1796922 76.3982519,33.1796922 74.4362124,33.8399596 C71.1661465,35.0051377 70.7044902,34.8497805 72.3202874,33.1020136 C73.5128997,31.859157 74.93634,29.6064797 74.93634,28.946212 C74.93634,28.8296943 74.3592696,29.0238905 73.7052565,29.3734439 C73.0127719,29.7618367 71.4739173,30.3444257 70.3197766,30.6939791 L68.2423229,31.3542466 L66.3572261,30.0725508 C65.3184994,29.3734439 63.8565875,28.5966586 63.0871602,28.363623 C61.1251208,27.8198732 58.1243544,27.8975517 56.3546718,28.5189801 C51.5457514,30.2667471 48.5065138,34.772102 48.852756,39.704689 Z" id="Shape" fill="#FFFFFF"></path>
        </g>
    </g>
</svg>