<?xml version="1.0" encoding="UTF-8"?>
<svg width="100px" height="100px" viewBox="0 0 100 100" version="1.1" xmlns="http://www.w3.org/2000/svg" xmlns:xlink="http://www.w3.org/1999/xlink">
    <!-- Generator: Sketch 57.1 (83088) - https://sketch.com -->
    <title>kakaotalk-logo-svg-vector</title>
    <desc>Created with Sketch.</desc>
    <defs>
        <circle id="path-1" cx="50" cy="50" r="50"></circle>
    </defs>
    <g id="Page-1" stroke="none" stroke-width="1" fill="none" fill-rule="evenodd">
        <g id="kakaotalk-logo-svg-vector">
            <mask id="mask-2" fill="white">
                <use xlink:href="#path-1"></use>
            </mask>
            <use id="Mask" fill="#D8D8D8" xlink:href="#path-1"></use>
            <g mask="url(#mask-2)" fill-rule="nonzero">
                <path d="M100,92.1875 C100,96.5023437 96.5023437,100 92.1875,100 L7.8125,100 C3.49765625,100 0,96.5023437 0,92.1875 L0,7.8125 C0,3.49765625 3.49765625,0 7.8125,0 L92.1875,0 C96.5023437,0 100,3.49765625 100,7.8125 L100,92.1875 Z" id="Path" fill="#FFE812"></path>
                <path d="M50.0836536,18.0625 C29.2575993,18.0625 12.375,31.3740173 12.375,47.794323 C12.375,58.4103968 19.4330447,67.725522 30.0502062,72.9855166 C29.4726112,74.9775487 26.3384419,85.8006575 26.2137133,86.6509151 C26.2137133,86.6509151 26.1386586,87.2897867 26.552366,87.5334426 C26.9660735,87.7770986 27.4526601,87.5878301 27.4526601,87.5878301 C28.6390324,87.4221296 41.2101548,78.5917781 43.3860166,77.0584138 C45.5597029,77.3662469 47.7979291,77.5261461 50.0836536,77.5261461 C70.9097079,77.5261461 87.7923072,64.2149914 87.7923072,47.794323 C87.7923072,31.3740173 70.9097079,18.0625 50.0836536,18.0625 Z" id="Path" fill="#000000"></path>
                <path d="M29.4424958,59.2753905 C28.3206725,59.2753905 27.4083647,58.1747313 27.4083647,56.8213916 L27.4083647,41.5556342 L24.234442,41.5556342 C23.133638,41.5556342 22.2382813,40.426709 22.2382813,39.0395358 C22.2382813,37.6523626 23.133977,36.5234375 24.234442,36.5234375 L34.6505497,36.5234375 C35.7513537,36.5234375 36.6467104,37.6523626 36.6467104,39.0395358 C36.6467104,40.426709 35.7510147,41.5556342 34.6505497,41.5556342 L31.476627,41.5556342 L31.476627,56.8213916 C31.476627,58.1747313 30.5643192,59.2753905 29.4424958,59.2753905 Z M47.2791141,59.2419873 C46.4308814,59.2419873 45.7819935,58.8068609 45.5863779,58.1070643 L44.579144,54.7759643 L38.3764,54.775536 L37.368488,58.1087774 C37.1735504,58.8072891 36.5250016,59.2419873 35.6767689,59.2419873 C35.2305926,59.2425624 34.7895625,59.1216113 34.3837395,58.887376 C33.8229973,58.5606044 33.2839526,57.6620897 33.9016504,55.2384981 L38.7672922,39.0600929 C39.1100433,37.8296673 40.1511794,36.561982 41.4760769,36.5238658 C42.8047035,36.5615537 43.8458397,37.8296673 44.1892688,39.0626625 L49.0528765,55.2337871 C49.6719304,57.6629462 49.1328856,58.5618893 48.5721435,58.8878043 C48.1662238,59.1216235 47.7252417,59.2424154 47.2791141,59.2419873 C47.2787751,59.2419873 47.2791141,59.2419873 47.2791141,59.2419873 L47.2791141,59.2419873 Z M43.50953,50.2242889 L41.477772,42.9329571 L39.4460139,50.2242889 L43.50953,50.2242889 L43.50953,50.2242889 Z M52.3264716,58.9006525 C51.2514332,58.9006525 50.3770959,57.843677 50.3770959,56.5451561 L50.3770959,39.0930698 C50.3770959,37.6759176 51.3087279,36.5234375 52.4536048,36.5234375 C53.5984816,36.5234375 54.5301137,37.6759176 54.5301137,39.0930698 L54.5301137,54.1896598 L58.8526424,54.1896598 C59.9276808,54.1896598 60.8020181,55.2466353 60.8020181,56.5451561 C60.8020181,57.843677 59.9276808,58.9006525 58.8526424,58.9006525 L52.3264716,58.9006525 Z M63.6274263,59.2419853 C62.505603,59.2419853 61.5932952,58.0895052 61.5932952,56.6723529 L61.5932952,39.0930698 C61.5932952,37.6759176 62.505603,36.5234375 63.6274263,36.5234375 C64.7492497,36.5234375 65.6615575,37.6759176 65.6615575,39.0930698 L65.6615575,44.6160663 L71.3367835,37.4467921 C71.6286813,37.0780498 72.0297442,36.8750489 72.4650483,36.8750489 C72.972903,36.8750489 73.4827919,37.1517126 73.8648695,37.6339469 C74.2211815,38.0836326 74.4337482,38.6622282 74.4629041,39.2630938 C74.492399,39.8690988 74.3327197,40.4245677 74.0140392,40.8275717 L69.3785932,46.682479 L74.3856071,55.06205 C74.7121498,55.6050505 74.8528189,56.2907125 74.7761603,56.9657193 C74.7029187,57.6411467 74.4186968,58.2514317 73.9869174,58.6603918 C73.6351573,58.9981514 73.2052265,59.1803931 72.7633875,59.1790293 C72.1242695,59.1827867 71.5215158,58.8038969 71.1384557,58.1576004 L66.3680791,50.1728962 L65.6622356,51.0645586 L65.6622356,56.6710681 C65.6609282,58.0900947 64.7507332,59.2400974 63.6274263,59.2419853 L63.6274263,59.2419853 Z" id="Shape" fill="#FFE812"></path>
            </g>
        </g>
    </g>
</svg>