<?xml version="1.0" encoding="UTF-8"?>
<svg width="100px" height="100px" viewBox="0 0 100 100" version="1.1" xmlns="http://www.w3.org/2000/svg" xmlns:xlink="http://www.w3.org/1999/xlink">
    <!-- Generator: Sketch 57.1 (83088) - https://sketch.com -->
    <title>Group 18</title>
    <desc>Created with Sketch.</desc>
    <g id="Page-1" stroke="none" stroke-width="1" fill="none" fill-rule="evenodd">
        <g id="Group-18">
            <g id="Group-16" fill="#FFE812">
                <g id="Group-5">
                    <circle id="Oval" cx="50" cy="50" r="50"></circle>
                </g>
            </g>
            <g id="Group-17" transform="translate(35.000000, 25.000000)" fill="#000000">
                <path d="M5,0 L26,0 C28.7614237,-5.07265313e-16 31,2.23857625 31,5 L31,27 C31,29.209139 29.209139,31 27,31 L5,31 C2.23857625,31 -1.43817996e-15,28.7614237 0,26 L0,5 C-3.38176876e-16,2.23857625 2.23857625,-1.26909153e-15 5,0 Z" id="Rectangle"></path>
                <path d="M14.350529,28 L29.7419404,26.5376417 C30.2917599,26.485379 30.7798267,26.8887492 30.832066,27.4385709 C30.8395187,27.5170111 30.8376747,27.5960573 30.8265725,27.6740647 C30.6295056,29.0587119 30.4765681,29.9699324 30.3677599,30.4077261 C28.7702284,36.8354503 26.9027397,41.422402 25.3747663,44.2278612 C23.6348779,47.4224103 20.2149597,51.5539828 15.1150118,56.6225786 C14.723288,57.0119065 14.0901206,57.0099543 13.7007988,56.6182244 C13.6839622,56.6012836 13.6677379,56.5837451 13.6521571,56.5656426 L4.68078374,46.1422323 C4.32051417,45.7236401 4.36778491,45.0922472 4.78637192,44.7319716 C4.79538458,44.7242145 4.80453489,44.7166187 4.81381847,44.7091879 C8.00467642,42.1551606 10.1531585,39.9819583 11.2592648,38.189581 C12.4569314,36.2488357 13.4873529,32.8523087 14.350529,28 Z" id="Rectangle"></path>
            </g>
        </g>
    </g>
</svg>