<?xml version="1.0" encoding="UTF-8"?>
<svg width="101px" height="100px" viewBox="0 0 101 100" version="1.1" xmlns="http://www.w3.org/2000/svg" xmlns:xlink="http://www.w3.org/1999/xlink">
    <!-- Generator: Sketch 57.1 (83088) - https://sketch.com -->
    <title>Group 15</title>
    <desc>Created with Sketch.</desc>
    <defs>
        <circle id="path-1" cx="50" cy="50" r="50"></circle>
        <circle id="path-3" cx="49" cy="50" r="50"></circle>
    </defs>
    <g id="Page-1" stroke="none" stroke-width="1" fill="none" fill-rule="evenodd">
        <g id="Group-15" transform="translate(1.000000, 0.000000)">
            <g id="band">
                <mask id="mask-2" fill="white">
                    <use xlink:href="#path-1"></use>
                </mask>
                <use id="Mask" fill="#07A41D" xlink:href="#path-1"></use>
                <mask id="mask-4" fill="white">
                    <use xlink:href="#path-3"></use>
                </mask>
                <use id="Mask" fill="#2DB400" xlink:href="#path-3"></use>
            </g>
            <g id="bandicon2" transform="translate(27.000000, 17.000000)" fill="#FFFFFF">
                <path d="M24.9981149,14 C38.8062748,14 50,25.4167389 50,39.5 C50,53.5832611 38.8062748,65 24.9981149,65 C11.3365845,65 0.234258006,53.8244435 6.26862433e-06,39.9477399 L3.50965867,39.947654 C3.7433774,51.8476702 13.2745933,61.4210526 24.9981149,61.4210526 C36.8682874,61.4210526 46.4909635,51.6066631 46.4909635,39.5 C46.4909635,27.3933369 36.8682874,17.5789474 24.9981149,17.5789474 C22.8643968,17.5789474 20.8032991,17.8960671 18.8576583,18.4866169 L18.8573487,14.7748347 C20.822047,14.2688165 22.8793014,14 24.9981149,14 Z M24.9981149,21.6052632 C34.6880516,21.6052632 42.5432974,29.6170097 42.5432974,39.5 C42.5432974,49.3829903 34.6880516,57.3947368 24.9981149,57.3947368 C15.4548807,57.3947368 7.6912048,49.6237445 7.45831298,39.9475681 L10.9686979,39.9475598 C11.2005209,47.6468612 17.3929752,53.8157895 24.9981149,53.8157895 C32.7500643,53.8157895 39.0342609,47.4063922 39.0342609,39.5 C39.0342609,31.5936078 32.7500643,25.1842105 24.9981149,25.1842105 C22.795888,25.1842105 20.7121167,25.7014831 18.857229,26.6234 L18.8576488,22.731797 C20.7688127,22.0034537 22.837871,21.6052632 24.9981149,21.6052632 Z M24.9981149,29.6578947 C30.3275801,29.6578947 34.6479653,34.0643554 34.6479653,39.5 C34.6479653,44.9356446 30.3275801,49.3421053 24.9981149,49.3421053 C19.8156831,49.3421053 15.5874208,45.1754283 15.3580602,39.9474672 L18.857301,39.9473684 L18.8570063,39.5 L18.857301,39.5 L18.8573667,31.9074979 C20.5257997,30.5021778 22.6652868,29.6578947 24.9981149,29.6578947 Z M24.9981149,33.2368421 C21.606637,33.2368421 18.857301,36.0409534 18.857301,39.5 L18.8570063,39.5 L18.861351,39.7296092 C18.9798108,43.082289 21.6820032,45.7631579 24.9981149,45.7631579 C28.3895928,45.7631579 31.1389288,42.9590466 31.1389288,39.5 C31.1389288,36.0409534 28.3895928,33.2368421 24.9981149,33.2368421 Z" id="Combined-Shape"></path>
                <path d="M9.5,0 C14.7467051,-9.63804095e-16 19,4.25329488 19,9.5 L19,40 L15.4651163,40 L15.4651163,9.52067183 C15.4651163,6.22622908 12.7944428,3.55555556 9.5,3.55555556 C6.28043095,3.55555556 3.65660017,6.10621431 3.53899813,9.29704135 L3.53488372,9.52067183 L3.53488372,40 L0,40 L0,9.5 C-6.42536064e-16,4.25329488 4.25329488,9.63804095e-16 9.5,0 Z M9.27906977,6.22222222 C10.255201,6.22222222 11.0465116,7.0135329 11.0465116,7.98966408 L11.0465116,40 L7.51162791,40 L7.51162791,7.98966408 C7.51162791,7.0135329 8.30293858,6.22222222 9.27906977,6.22222222 Z" id="Combined-Shape"></path>
            </g>
        </g>
    </g>
</svg>